<svg width="36" height="36" viewBox="0 0 36 36" fill="none" xmlns="http://www.w3.org/2000/svg">
<circle cx="18" cy="18" r="18" fill="#183D4D"/>
<path d="M24.3458 22.6316H11.6275C11.348 22.6316 11.1008 22.4503 11.017 22.1837L8.74997 14.979C8.48601 14.1401 9.39519 13.4174 10.1529 13.8637L14.036 16.151C14.1898 16.2416 14.3881 16.1888 14.4765 16.0336L17.0972 11.4304C17.4609 10.7914 18.3785 10.7818 18.7556 11.413L21.5211 16.0428C21.6114 16.1938 21.8066 16.2437 21.9582 16.1544L25.8389 13.8685C26.5977 13.4216 27.5076 14.1468 27.2411 14.9861L24.9559 22.1852C24.8715 22.451 24.6247 22.6316 24.3458 22.6316Z" fill="url(#paint0_linear_2062_6317)"/>
<path d="M24.4175 25.7896H11.5833C11.3281 25.7896 11.1582 25.6055 11.1582 25.3949V23.6843H24.8424V25.3949C24.8424 25.6053 24.6442 25.7896 24.4175 25.7896Z" fill="url(#paint1_linear_2062_6317)"/>
<defs>
<linearGradient id="paint0_linear_2062_6317" x1="28" y1="16.3158" x2="8" y2="16.3158" gradientUnits="userSpaceOnUse">
<stop stop-color="#1D83BF"/>
<stop offset="1" stop-color="#1BB3D7"/>
</linearGradient>
<linearGradient id="paint1_linear_2062_6317" x1="24.8424" y1="24.737" x2="11.1582" y2="24.737" gradientUnits="userSpaceOnUse">
<stop stop-color="#1D83BF"/>
<stop offset="1" stop-color="#1BB3D7"/>
</linearGradient>
</defs>
</svg>
