<svg width="36" height="36" viewBox="0 0 36 36" fill="none" xmlns="http://www.w3.org/2000/svg">
<circle cx="18" cy="18" r="18" fill="#183D4D"/>
<path d="M23.8035 26H12.0788C10.9147 26 10 25.1901 10 24.1595V16.1349C10 15.1042 10.9147 14.2944 12.0788 14.2944H23.8035C24.9677 14.2944 25.8824 15.1042 25.8824 16.1349V24.1227C25.8824 25.1533 24.9677 26 23.8035 26ZM12.0788 15.7668C11.8294 15.7668 11.6631 15.9141 11.6631 16.1349V24.1227C11.6631 24.3435 11.8294 24.4908 12.0788 24.4908H23.8035C24.053 24.4908 24.2193 24.3435 24.2193 24.1227V16.1349C24.2193 15.9141 24.053 15.7668 23.8035 15.7668H12.0788Z" fill="url(#paint0_linear_2062_6333)"/>
<path d="M23.0972 14.9571H21.0183V12.5644C21.0183 11.0552 19.6463 9.84049 17.9417 9.84049C16.237 9.84049 14.865 11.0552 14.865 12.5644V14.9571H12.7861V12.5644C12.7861 10.0614 15.1144 8 17.9417 8C20.7689 8 23.0972 10.0245 23.0972 12.5644V14.9571Z" fill="url(#paint1_linear_2062_6333)"/>
<path d="M17.9409 22.1595C17.4836 22.1595 17.1094 21.8282 17.1094 21.4233V18.7362C17.1094 18.3313 17.4836 18 17.9409 18C18.3983 18 18.7724 18.3313 18.7724 18.7362V21.4233C18.7724 21.8282 18.3983 22.1595 17.9409 22.1595Z" fill="url(#paint2_linear_2062_6333)"/>
<rect x="11" y="15" width="14" height="10" fill="url(#paint3_linear_2062_6333)" fill-opacity="0.25"/>
<path d="M23.8035 26H12.0788C10.9147 26 10 25.1901 10 24.1595V16.1349C10 15.1042 10.9147 14.2944 12.0788 14.2944H23.8035C24.9677 14.2944 25.8824 15.1042 25.8824 16.1349V24.1227C25.8824 25.1533 24.9677 26 23.8035 26ZM12.0788 15.7668C11.8294 15.7668 11.6631 15.9141 11.6631 16.1349V24.1227C11.6631 24.3435 11.8294 24.4908 12.0788 24.4908H23.8035C24.053 24.4908 24.2193 24.3435 24.2193 24.1227V16.1349C24.2193 15.9141 24.053 15.7668 23.8035 15.7668H12.0788Z" fill="url(#paint4_linear_2062_6333)"/>
<path d="M23.0972 14.9571H21.0183V12.5644C21.0183 11.0552 19.6463 9.84049 17.9417 9.84049C16.237 9.84049 14.865 11.0552 14.865 12.5644V14.9571H12.7861V12.5644C12.7861 10.0614 15.1144 8 17.9417 8C20.7689 8 23.0972 10.0245 23.0972 12.5644V14.9571Z" fill="url(#paint5_linear_2062_6333)"/>
<path d="M17.9409 22.1595C17.4836 22.1595 17.1094 21.8282 17.1094 21.4233V18.7362C17.1094 18.3313 17.4836 18 17.9409 18C18.3983 18 18.7724 18.3313 18.7724 18.7362V21.4233C18.7724 21.8282 18.3983 22.1595 17.9409 22.1595Z" fill="url(#paint6_linear_2062_6333)"/>
<defs>
<linearGradient id="paint0_linear_2062_6333" x1="10" y1="19.895" x2="25.9077" y2="19.895" gradientUnits="userSpaceOnUse">
<stop stop-color="#1D83BF"/>
<stop offset="1" stop-color="#2DB8DA"/>
</linearGradient>
<linearGradient id="paint1_linear_2062_6333" x1="12.7861" y1="11.3286" x2="23.1137" y2="11.3286" gradientUnits="userSpaceOnUse">
<stop stop-color="#1D83BF"/>
<stop offset="1" stop-color="#2DB8DA"/>
</linearGradient>
<linearGradient id="paint2_linear_2062_6333" x1="17.1094" y1="19.9901" x2="18.7751" y2="19.9901" gradientUnits="userSpaceOnUse">
<stop stop-color="#1D83BF"/>
<stop offset="1" stop-color="#2DB8DA"/>
</linearGradient>
<linearGradient id="paint3_linear_2062_6333" x1="11" y1="19.7845" x2="25.0224" y2="19.7845" gradientUnits="userSpaceOnUse">
<stop stop-color="#1D83BF"/>
<stop offset="1" stop-color="#2DB8DA"/>
</linearGradient>
<linearGradient id="paint4_linear_2062_6333" x1="10" y1="19.895" x2="25.9077" y2="19.895" gradientUnits="userSpaceOnUse">
<stop stop-color="#1D83BF"/>
<stop offset="1" stop-color="#2DB8DA"/>
</linearGradient>
<linearGradient id="paint5_linear_2062_6333" x1="12.7861" y1="11.3286" x2="23.1137" y2="11.3286" gradientUnits="userSpaceOnUse">
<stop stop-color="#1D83BF"/>
<stop offset="1" stop-color="#2DB8DA"/>
</linearGradient>
<linearGradient id="paint6_linear_2062_6333" x1="17.1094" y1="19.9901" x2="18.7751" y2="19.9901" gradientUnits="userSpaceOnUse">
<stop stop-color="#1D83BF"/>
<stop offset="1" stop-color="#2DB8DA"/>
</linearGradient>
</defs>
</svg>
